<?xml version="1.0" encoding="utf-8"?>
<!-- Generator: Adobe Illustrator 22.0.1, SVG Export Plug-In . SVG Version: 6.00 Build 0)  -->
<svg version="1.1" id="Thermometer_Warm" xmlns="http://www.w3.org/2000/svg" xmlns:xlink="http://www.w3.org/1999/xlink" x="0px"
	 y="0px" viewBox="0 0 512 512" style="enable-background:new 0 0 512 512;" xml:space="preserve">
<style type="text/css">
	.st0{fill:#9C9E9F;}
	.st1{fill:#707173;}
	.st2{fill:#ECEDED;}
	.st3{fill:#E95D0F;}
	.st4{fill:#C6C7C8;}
</style>
<title>Icon_Thermometer_Warm</title>
<g>
	<path class="st0" d="M269.3,306V91.1c0-27.6-22.4-50-50-50l0,0c-27.6,0-50,22.4-50,50V306c-41.3,27.6-52.4,83.5-24.8,124.8
		s83.5,52.4,124.8,24.8c41.3-27.6,52.4-83.5,24.8-124.8C287.5,321,279.1,312.6,269.3,306z"/>
	<rect x="265.3" y="106.6" class="st1" width="8" height="15"/>
	<path class="st1" d="M219.3,474.9c-51.9,0-94-42.1-94-94c0-30.6,14.9-59.3,40-76.9V91.1c0-29.8,24.2-54,54-54s54,24.2,54,54v3.7
		c0,2.2-1.8,4-4,4s-4-1.8-4-4v-3.7c0-25.4-20.6-46-46-46c-25.4,0-46,20.6-46,46l0,0v217l-1.8,1.2c-39.5,26.4-50.1,79.8-23.7,119.3
		s79.8,50.1,119.3,23.7s50.1-79.8,23.7-119.3c-6.3-9.4-14.3-17.5-23.7-23.7l-1.8-1.2V133.7c0-2.2,1.8-4,4-4s4,1.8,4,4v170.2
		c42.5,29.8,52.8,88.4,22.9,130.9C278.6,459.9,249.9,474.9,219.3,474.9L219.3,474.9z"/>
	<path class="st2" d="M252.6,331l-13.3-9V91.4h-40V322l-13.3,9c-27.6,18.4-35,55.7-16.6,83.2c18.4,27.6,55.7,35,83.2,16.6
		c27.6-18.4,35-55.7,16.6-83.2C264.8,341,259.2,335.4,252.6,331L252.6,331z"/>
	<path class="st3" d="M252.6,331l-13.3-9V150.9h-40V322l-13.3,9c-27.6,18.4-35,55.7-16.6,83.2c18.4,27.6,55.7,35,83.2,16.6
		c27.6-18.4,35-55.7,16.6-83.2C264.8,341,259.2,335.4,252.6,331L252.6,331z"/>
	<path class="st4" d="M254.8,327.6l-11.5-7.7v-25.8H257v-8h-13.7v-35.2H257v-8h-13.7v-35.2H257v-8h-13.7v-35.2H257v-8h-13.7v-35.2
		H257v-8h-13.7v-22c0-2.2-1.8-4-4-4h-40c-2.2,0-4,1.8-4,4v228.5l-11.5,7.7c-29.4,19.6-37.3,59.4-17.7,88.8
		c19.6,29.4,59.4,37.3,88.8,17.7s37.3-59.4,17.7-88.8C267.8,338.3,261.8,332.3,254.8,327.6z M219.3,436.9c-30.9,0-56-25.1-56-56
		c0-18.7,9.4-36.2,24.9-46.6l13.3-8.9c1.1-0.7,1.8-2,1.8-3.3V95.4h32V322c0,1.3,0.7,2.6,1.8,3.3l13.3,8.9l0,0
		c25.7,17.2,32.7,51.9,15.5,77.7C255.5,427.5,238,436.8,219.3,436.9L219.3,436.9z"/>
	<g>
		<defs>
			<polygon id="SVGID_1_" points="367.7,174.1 327.7,174.1 327.7,110.1 312.7,110.1 347.7,54.1 382.7,110.1 367.7,110.1 			"/>
		</defs>
		<use xlink:href="#SVGID_1_"  style="overflow:visible;fill:#FF8C00;"/>
		<clipPath id="SVGID_2_">
			<use xlink:href="#SVGID_1_"  style="overflow:visible;"/>
		</clipPath>
	</g>
	<path class="st3" d="M367.7,177.6h-40c-1.9,0-3.5-1.6-3.5-3.5v-60.5h-11.5c-1.9,0-3.5-1.6-3.5-3.5c0-0.7,0.2-1.3,0.5-1.9l35-56
		c1-1.6,3.2-2.1,4.8-1.1c0.5,0.3,0.8,0.7,1.1,1.1l35,56c1,1.6,0.5,3.8-1.1,4.8c-0.6,0.4-1.2,0.5-1.9,0.5h-11.5v60.5
		C371.2,176,369.6,177.6,367.7,177.6z M331.2,170.6h33v-60.5c0-1.9,1.6-3.5,3.5-3.5c0,0,0,0,0,0h8.7l-28.7-45.9L319,106.6h8.7
		c1.9,0,3.5,1.6,3.5,3.5c0,0,0,0,0,0L331.2,170.6z"/>
</g>
</svg>
